<mxfile host="Electron" modified="2023-07-03T15:26:18.384Z" agent="Mozilla/5.0 (Windows NT 10.0; Win64; x64) AppleWebKit/537.36 (KHTML, like Gecko) draw.io/21.5.1 Chrome/112.0.5615.204 Electron/24.6.0 Safari/537.36" etag="Qd-DElIO16HZe0Yk6K5S" version="21.5.1" type="device">
  <diagram id="C5RBs43oDa-KdzZeNtuy" name="Page-1">
    <mxGraphModel dx="1674" dy="4036" grid="1" gridSize="10" guides="1" tooltips="1" connect="1" arrows="1" fold="1" page="1" pageScale="1" pageWidth="1200" pageHeight="1600" math="0" shadow="0">
      <root>
        <mxCell id="WIyWlLk6GJQsqaUBKTNV-0" />
        <mxCell id="WIyWlLk6GJQsqaUBKTNV-1" parent="WIyWlLk6GJQsqaUBKTNV-0" />
        <mxCell id="qquA3-FVSek-2CY04mbo-0" value="Window" style="swimlane;fontStyle=1;align=center;verticalAlign=top;childLayout=stackLayout;horizontal=1;startSize=26;horizontalStack=0;resizeParent=1;resizeParentMax=0;resizeLast=0;collapsible=1;marginBottom=0;whiteSpace=wrap;html=1;" parent="WIyWlLk6GJQsqaUBKTNV-1" vertex="1">
          <mxGeometry x="760" y="-2910" width="270" height="170" as="geometry" />
        </mxCell>
        <mxCell id="qquA3-FVSek-2CY04mbo-1" value="- m_window: GLFWwindow*" style="text;strokeColor=none;fillColor=none;align=left;verticalAlign=top;spacingLeft=4;spacingRight=4;overflow=hidden;rotatable=0;points=[[0,0.5],[1,0.5]];portConstraint=eastwest;whiteSpace=wrap;html=1;" parent="qquA3-FVSek-2CY04mbo-0" vertex="1">
          <mxGeometry y="26" width="270" height="26" as="geometry" />
        </mxCell>
        <mxCell id="qquA3-FVSek-2CY04mbo-2" value="" style="line;strokeWidth=1;fillColor=none;align=left;verticalAlign=middle;spacingTop=-1;spacingLeft=3;spacingRight=3;rotatable=0;labelPosition=right;points=[];portConstraint=eastwest;strokeColor=inherit;" parent="qquA3-FVSek-2CY04mbo-0" vertex="1">
          <mxGeometry y="52" width="270" height="8" as="geometry" />
        </mxCell>
        <mxCell id="qquA3-FVSek-2CY04mbo-3" value="+ GetGLFWwindow(): GLFWwindow*&lt;br&gt;+ ShouldClose(): Bool&lt;br&gt;+ PollEvents(): void&lt;br&gt;+ SwapBuffers(): void&lt;br&gt;- ErrorCallBack(int error, char* description): void" style="text;strokeColor=none;fillColor=none;align=left;verticalAlign=top;spacingLeft=4;spacingRight=4;overflow=hidden;rotatable=0;points=[[0,0.5],[1,0.5]];portConstraint=eastwest;whiteSpace=wrap;html=1;" parent="qquA3-FVSek-2CY04mbo-0" vertex="1">
          <mxGeometry y="60" width="270" height="110" as="geometry" />
        </mxCell>
        <mxCell id="qquA3-FVSek-2CY04mbo-4" value="&amp;lt;&amp;lt;singleton&amp;gt;&amp;gt;&lt;br&gt;Vulkan" style="swimlane;fontStyle=1;align=center;verticalAlign=top;childLayout=stackLayout;horizontal=1;startSize=40;horizontalStack=0;resizeParent=1;resizeParentMax=0;resizeLast=0;collapsible=1;marginBottom=0;whiteSpace=wrap;html=1;" parent="WIyWlLk6GJQsqaUBKTNV-1" vertex="1">
          <mxGeometry x="100" y="-2820" width="360" height="400" as="geometry" />
        </mxCell>
        <mxCell id="qquA3-FVSek-2CY04mbo-5" value="- m_instance: VkInstance&lt;br&gt;- m_title: string&lt;br&gt;- m_vulkan: Vulkan&lt;br&gt;- m_debugMessenger: VkDebugUtilsMessengerEXT&lt;br&gt;- m_surface: VkSurfaceKHR&lt;br&gt;- p_window: GLFWwindow&lt;br&gt;- m_device: Device*&lt;br&gt;- m_swapChain: SwapChain*&lt;br&gt;- p_winWidth: int&lt;br&gt;- p_winHeight: int" style="text;strokeColor=none;fillColor=none;align=left;verticalAlign=top;spacingLeft=4;spacingRight=4;overflow=hidden;rotatable=0;points=[[0,0.5],[1,0.5]];portConstraint=eastwest;whiteSpace=wrap;html=1;" parent="qquA3-FVSek-2CY04mbo-4" vertex="1">
          <mxGeometry y="40" width="360" height="150" as="geometry" />
        </mxCell>
        <mxCell id="qquA3-FVSek-2CY04mbo-6" value="" style="line;strokeWidth=1;fillColor=none;align=left;verticalAlign=middle;spacingTop=-1;spacingLeft=3;spacingRight=3;rotatable=0;labelPosition=right;points=[];portConstraint=eastwest;strokeColor=inherit;" parent="qquA3-FVSek-2CY04mbo-4" vertex="1">
          <mxGeometry y="190" width="360" height="8" as="geometry" />
        </mxCell>
        <mxCell id="qquA3-FVSek-2CY04mbo-7" value="+ getInstance(): Vulkan*&lt;br&gt;+ initVulkan(): void&lt;br&gt;+ setupDebugMessenger(): void&lt;br&gt;+ cleanupVulkan: void&lt;br&gt;- createInstance(): void&lt;br&gt;- createSurface(): void&lt;br&gt;- createSwapChain(): void&lt;br&gt;- populateDebugMessengerCreateInfo(...): void&lt;br&gt;- debugCallback(...): static VKAPI_ATTR VkBool32 VKAPI_Call&lt;br&gt;- CreateDebugUtilsMessengerEXT(...): VkResult&lt;br&gt;- DestroyDebugUtilsMessengerEXT(...): void&lt;br&gt;- checkValidationLayerSupport(): bool&lt;br&gt;- getRequiredExtensions(): std::vector&amp;lt;const char*&amp;gt;" style="text;strokeColor=none;fillColor=none;align=left;verticalAlign=top;spacingLeft=4;spacingRight=4;overflow=hidden;rotatable=0;points=[[0,0.5],[1,0.5]];portConstraint=eastwest;whiteSpace=wrap;html=1;" parent="qquA3-FVSek-2CY04mbo-4" vertex="1">
          <mxGeometry y="198" width="360" height="202" as="geometry" />
        </mxCell>
        <mxCell id="qquA3-FVSek-2CY04mbo-8" value="1 to 1" style="endArrow=block;startArrow=block;endFill=1;startFill=1;html=1;rounded=0;entryX=0;entryY=0.32;entryDx=0;entryDy=0;entryPerimeter=0;exitX=1;exitY=0.144;exitDx=0;exitDy=0;exitPerimeter=0;" parent="WIyWlLk6GJQsqaUBKTNV-1" source="qquA3-FVSek-2CY04mbo-7" target="qquA3-FVSek-2CY04mbo-3" edge="1">
          <mxGeometry width="160" relative="1" as="geometry">
            <mxPoint x="630" y="-2590" as="sourcePoint" />
            <mxPoint x="760" y="-2590" as="targetPoint" />
          </mxGeometry>
        </mxCell>
        <mxCell id="qquA3-FVSek-2CY04mbo-9" value="&amp;lt;&amp;lt;singleton&amp;gt;&amp;gt;&lt;br&gt;Engine" style="swimlane;fontStyle=1;align=center;verticalAlign=top;childLayout=stackLayout;horizontal=1;startSize=40;horizontalStack=0;resizeParent=1;resizeParentMax=0;resizeLast=0;collapsible=1;marginBottom=0;whiteSpace=wrap;html=1;" parent="WIyWlLk6GJQsqaUBKTNV-1" vertex="1">
          <mxGeometry x="480" y="-3190" width="206" height="240" as="geometry" />
        </mxCell>
        <mxCell id="qquA3-FVSek-2CY04mbo-10" value="- m_vulkan: Vulkan&lt;br&gt;- m_window: Window&lt;br&gt;- m_title: const char*&lt;br&gt;- m_winWidth: int&lt;br&gt;- m_winHeight: int&lt;br&gt;- m_title: m_title&lt;br&gt;- m_engine: Engine*" style="text;strokeColor=none;fillColor=none;align=left;verticalAlign=top;spacingLeft=4;spacingRight=4;overflow=hidden;rotatable=0;points=[[0,0.5],[1,0.5]];portConstraint=eastwest;whiteSpace=wrap;html=1;" parent="qquA3-FVSek-2CY04mbo-9" vertex="1">
          <mxGeometry y="40" width="206" height="110" as="geometry" />
        </mxCell>
        <mxCell id="qquA3-FVSek-2CY04mbo-11" value="" style="line;strokeWidth=1;fillColor=none;align=left;verticalAlign=middle;spacingTop=-1;spacingLeft=3;spacingRight=3;rotatable=0;labelPosition=right;points=[];portConstraint=eastwest;strokeColor=inherit;" parent="qquA3-FVSek-2CY04mbo-9" vertex="1">
          <mxGeometry y="150" width="206" height="8" as="geometry" />
        </mxCell>
        <mxCell id="qquA3-FVSek-2CY04mbo-12" value="+ GetInstance(): Engine*&lt;br&gt;+ setInfo(int, int, string): void&lt;br&gt;+ initEngine(): void&lt;br&gt;+ mainLoop(): void" style="text;strokeColor=none;fillColor=none;align=left;verticalAlign=top;spacingLeft=4;spacingRight=4;overflow=hidden;rotatable=0;points=[[0,0.5],[1,0.5]];portConstraint=eastwest;whiteSpace=wrap;html=1;" parent="qquA3-FVSek-2CY04mbo-9" vertex="1">
          <mxGeometry y="158" width="206" height="82" as="geometry" />
        </mxCell>
        <mxCell id="qquA3-FVSek-2CY04mbo-13" value="1 to 1" style="endArrow=diamondThin;endFill=0;endSize=24;html=1;rounded=0;exitX=0;exitY=0.5;exitDx=0;exitDy=0;entryX=0.5;entryY=0;entryDx=0;entryDy=0;" parent="WIyWlLk6GJQsqaUBKTNV-1" source="qquA3-FVSek-2CY04mbo-12" target="qquA3-FVSek-2CY04mbo-4" edge="1">
          <mxGeometry width="160" relative="1" as="geometry">
            <mxPoint x="650" y="-2720" as="sourcePoint" />
            <mxPoint x="810" y="-2720" as="targetPoint" />
          </mxGeometry>
        </mxCell>
        <mxCell id="qquA3-FVSek-2CY04mbo-14" value="1 to 1" style="endArrow=diamondThin;endFill=0;endSize=24;html=1;rounded=0;exitX=1;exitY=0.5;exitDx=0;exitDy=0;entryX=0.471;entryY=-0.007;entryDx=0;entryDy=0;entryPerimeter=0;" parent="WIyWlLk6GJQsqaUBKTNV-1" source="qquA3-FVSek-2CY04mbo-12" target="qquA3-FVSek-2CY04mbo-0" edge="1">
          <mxGeometry width="160" relative="1" as="geometry">
            <mxPoint x="650" y="-2720" as="sourcePoint" />
            <mxPoint x="810" y="-2720" as="targetPoint" />
          </mxGeometry>
        </mxCell>
        <mxCell id="J-IRdLQZ-pbcko1djJqH-0" value="Device" style="swimlane;fontStyle=1;align=center;verticalAlign=top;childLayout=stackLayout;horizontal=1;startSize=26;horizontalStack=0;resizeParent=1;resizeParentMax=0;resizeLast=0;collapsible=1;marginBottom=0;whiteSpace=wrap;html=1;" parent="WIyWlLk6GJQsqaUBKTNV-1" vertex="1">
          <mxGeometry x="40" y="-2350" width="360" height="400" as="geometry" />
        </mxCell>
        <mxCell id="J-IRdLQZ-pbcko1djJqH-1" value="- m_indices: QueueFamilyIndices&lt;br&gt;- m_physicalDevice: VkPhysicalDevice&lt;br&gt;- m_logicalDevice: VkDevice&lt;br&gt;- m_graphicsQueue: VkQueue&lt;br&gt;- m_presentQueue: VkQueue&lt;br&gt;- p_surface: VkSurfaceKHR*&lt;br&gt;- p_window: GLFWwindow*" style="text;strokeColor=none;fillColor=none;align=left;verticalAlign=top;spacingLeft=4;spacingRight=4;overflow=hidden;rotatable=0;points=[[0,0.5],[1,0.5]];portConstraint=eastwest;whiteSpace=wrap;html=1;" parent="J-IRdLQZ-pbcko1djJqH-0" vertex="1">
          <mxGeometry y="26" width="360" height="114" as="geometry" />
        </mxCell>
        <mxCell id="J-IRdLQZ-pbcko1djJqH-2" value="" style="line;strokeWidth=1;fillColor=none;align=left;verticalAlign=middle;spacingTop=-1;spacingLeft=3;spacingRight=3;rotatable=0;labelPosition=right;points=[];portConstraint=eastwest;strokeColor=inherit;" parent="J-IRdLQZ-pbcko1djJqH-0" vertex="1">
          <mxGeometry y="140" width="360" height="8" as="geometry" />
        </mxCell>
        <mxCell id="J-IRdLQZ-pbcko1djJqH-3" value="+ createPhysicalAndLogicalevices(VkInstance): void&lt;br&gt;+ querySwapChainSupport(VkPhysicalDevice): SwapChainSupportDetails&lt;br&gt;+ chooseSwapSurfaceFormat(const vector&amp;lt;VkSurfaceFormatKHR&amp;gt;&amp;amp;): VkSurfaceFormatKHR&lt;br&gt;+ chooseSwapPresentMode(const vector&amp;lt;VkPresentModeKHR&amp;gt;&amp;amp;): VkPresentModeKHR&lt;br&gt;+ chooseSwapExtent(const VkSurfaceCapabilitiesKHR&amp;amp;): VkExtent2D&lt;br&gt;+ findQueueFamilies(VkPhysicalDevice device): QueueFamilyIndices&lt;br&gt;+ getPhysicalDevice(): VkPhysicalDevice&lt;br&gt;+ getLogicalDevice(): VkDevice&lt;br&gt;- pickPhysicalDevice(VkInstance&amp;amp; instance): void&lt;br&gt;- isDeviceSuitable(VkPhysicalDevice device): bool&lt;br&gt;- createLogicalDevice(): void&lt;br&gt;- checkDeviceExtensionsSupport(VkPhysicalDevice device): bool" style="text;strokeColor=none;fillColor=none;align=left;verticalAlign=top;spacingLeft=4;spacingRight=4;overflow=hidden;rotatable=0;points=[[0,0.5],[1,0.5]];portConstraint=eastwest;whiteSpace=wrap;html=1;" parent="J-IRdLQZ-pbcko1djJqH-0" vertex="1">
          <mxGeometry y="148" width="360" height="252" as="geometry" />
        </mxCell>
        <mxCell id="J-IRdLQZ-pbcko1djJqH-5" value="1 to 1" style="endArrow=diamondThin;endFill=0;endSize=24;html=1;rounded=0;exitX=0.371;exitY=1.021;exitDx=0;exitDy=0;exitPerimeter=0;entryX=0.5;entryY=0;entryDx=0;entryDy=0;" parent="WIyWlLk6GJQsqaUBKTNV-1" source="qquA3-FVSek-2CY04mbo-7" target="J-IRdLQZ-pbcko1djJqH-0" edge="1">
          <mxGeometry width="160" relative="1" as="geometry">
            <mxPoint x="400" y="-2280" as="sourcePoint" />
            <mxPoint x="560" y="-2280" as="targetPoint" />
          </mxGeometry>
        </mxCell>
        <mxCell id="0jz8DjjLI8052rK_1Uem-0" value="SwapChain" style="swimlane;fontStyle=1;align=center;verticalAlign=top;childLayout=stackLayout;horizontal=1;startSize=26;horizontalStack=0;resizeParent=1;resizeParentMax=0;resizeLast=0;collapsible=1;marginBottom=0;whiteSpace=wrap;html=1;" vertex="1" parent="WIyWlLk6GJQsqaUBKTNV-1">
          <mxGeometry x="425" y="-2350" width="400" height="230" as="geometry" />
        </mxCell>
        <mxCell id="0jz8DjjLI8052rK_1Uem-1" value="- p_device: Device*&lt;br&gt;- p_surface: VkSurfaceKHR*&lt;br&gt;- swapChain: VkSwapchainKHR&lt;br&gt;- swapChainImages: std::vector&amp;lt;VkImage&amp;gt;&lt;br&gt;- swapChainImageViews: std::vector&amp;lt;VkImageView&amp;gt;&lt;br&gt;- swapChainImageFormat: VkFormat&lt;br&gt;- swapChainExtent: VkExtent2D" style="text;strokeColor=none;fillColor=none;align=left;verticalAlign=top;spacingLeft=4;spacingRight=4;overflow=hidden;rotatable=0;points=[[0,0.5],[1,0.5]];portConstraint=eastwest;whiteSpace=wrap;html=1;" vertex="1" parent="0jz8DjjLI8052rK_1Uem-0">
          <mxGeometry y="26" width="400" height="114" as="geometry" />
        </mxCell>
        <mxCell id="0jz8DjjLI8052rK_1Uem-2" value="" style="line;strokeWidth=1;fillColor=none;align=left;verticalAlign=middle;spacingTop=-1;spacingLeft=3;spacingRight=3;rotatable=0;labelPosition=right;points=[];portConstraint=eastwest;strokeColor=inherit;" vertex="1" parent="0jz8DjjLI8052rK_1Uem-0">
          <mxGeometry y="140" width="400" height="8" as="geometry" />
        </mxCell>
        <mxCell id="0jz8DjjLI8052rK_1Uem-3" value="+ SwapChain(Device* device, VkSurfaceKHR* surface)&lt;br&gt;+ init(uint32_t windowWidth, uint32_t windowHeight): void&lt;br&gt;- createSwapChain(uint32_t windowWidth, uint32_t windowHeight): void&lt;br&gt;- createImageViews(): void&lt;br&gt;- cleanupSwapChain(): void" style="text;strokeColor=none;fillColor=none;align=left;verticalAlign=top;spacingLeft=4;spacingRight=4;overflow=hidden;rotatable=0;points=[[0,0.5],[1,0.5]];portConstraint=eastwest;whiteSpace=wrap;html=1;" vertex="1" parent="0jz8DjjLI8052rK_1Uem-0">
          <mxGeometry y="148" width="400" height="82" as="geometry" />
        </mxCell>
        <mxCell id="0jz8DjjLI8052rK_1Uem-4" value="1 to 1" style="endArrow=diamondThin;endFill=0;endSize=24;html=1;rounded=0;entryX=0.5;entryY=0;entryDx=0;entryDy=0;exitX=1;exitY=0.5;exitDx=0;exitDy=0;" edge="1" parent="WIyWlLk6GJQsqaUBKTNV-1" source="qquA3-FVSek-2CY04mbo-7" target="0jz8DjjLI8052rK_1Uem-0">
          <mxGeometry width="160" relative="1" as="geometry">
            <mxPoint x="510" y="-2430" as="sourcePoint" />
            <mxPoint x="230" y="-2340" as="targetPoint" />
          </mxGeometry>
        </mxCell>
      </root>
    </mxGraphModel>
  </diagram>
</mxfile>
